<mxfile host="app.diagrams.net" modified="2023-11-17T06:09:58.040Z" agent="Mozilla/5.0 (Windows NT 10.0; Win64; x64) AppleWebKit/537.36 (KHTML, like Gecko) Chrome/118.0.0.0 Safari/537.36" etag="8XYSXwMkSLn7MFE3VZcI" version="22.1.2" type="github">
  <diagram name="Страница — 1" id="UBM8uuqGAXcxDV0GicOs">
    <mxGraphModel dx="1290" dy="542" grid="0" gridSize="10" guides="1" tooltips="1" connect="1" arrows="1" fold="1" page="1" pageScale="1" pageWidth="827" pageHeight="1169" math="0" shadow="0">
      <root>
        <mxCell id="0" />
        <mxCell id="1" parent="0" />
        <mxCell id="SP7nUaGou8AFclUCDvNq-2" style="edgeStyle=orthogonalEdgeStyle;rounded=0;orthogonalLoop=1;jettySize=auto;html=1;entryX=0.5;entryY=0;entryDx=0;entryDy=0;" parent="1" edge="1">
          <mxGeometry relative="1" as="geometry">
            <mxPoint x="309" y="39" as="sourcePoint" />
            <mxPoint x="309" y="180" as="targetPoint" />
          </mxGeometry>
        </mxCell>
        <mxCell id="SP7nUaGou8AFclUCDvNq-7" value="Причина обращения" style="edgeLabel;html=1;align=center;verticalAlign=middle;resizable=0;points=[];" parent="SP7nUaGou8AFclUCDvNq-2" vertex="1" connectable="0">
          <mxGeometry x="-0.4289" y="-1" relative="1" as="geometry">
            <mxPoint x="59" y="24" as="offset" />
          </mxGeometry>
        </mxCell>
        <mxCell id="8RD01GwfZpLmEbGkj-MV-2" value="Диагностика устройства" style="rounded=0;whiteSpace=wrap;html=1;" parent="1" vertex="1">
          <mxGeometry x="250" y="180" width="120" height="80" as="geometry" />
        </mxCell>
        <mxCell id="cW5cbvTTbWDXC6wcSxft-3" style="edgeStyle=orthogonalEdgeStyle;rounded=0;orthogonalLoop=1;jettySize=auto;html=1;exitX=1;exitY=0.5;exitDx=0;exitDy=0;" edge="1" parent="1" source="8RD01GwfZpLmEbGkj-MV-3">
          <mxGeometry relative="1" as="geometry">
            <mxPoint x="630.800048828125" y="320" as="targetPoint" />
          </mxGeometry>
        </mxCell>
        <mxCell id="8RD01GwfZpLmEbGkj-MV-3" value="Оформление договора" style="rounded=0;whiteSpace=wrap;html=1;" parent="1" vertex="1">
          <mxGeometry x="400" y="280" width="120" height="80" as="geometry" />
        </mxCell>
        <mxCell id="gTo4boSulwLFCVvMiwWt-6" value="" style="endArrow=classic;html=1;rounded=0;exitX=1;exitY=0.5;exitDx=0;exitDy=0;" parent="1" source="8RD01GwfZpLmEbGkj-MV-2" edge="1">
          <mxGeometry width="50" height="50" relative="1" as="geometry">
            <mxPoint x="510" y="220" as="sourcePoint" />
            <mxPoint x="464" y="279" as="targetPoint" />
            <Array as="points">
              <mxPoint x="464" y="220" />
            </Array>
          </mxGeometry>
        </mxCell>
        <mxCell id="gTo4boSulwLFCVvMiwWt-7" value="" style="endArrow=classic;html=1;rounded=0;exitX=1;exitY=0.5;exitDx=0;exitDy=0;" parent="1" edge="1">
          <mxGeometry width="50" height="50" relative="1" as="geometry">
            <mxPoint x="504" y="188" as="sourcePoint" />
            <mxPoint x="624" y="188" as="targetPoint" />
            <Array as="points">
              <mxPoint x="624" y="188" />
            </Array>
          </mxGeometry>
        </mxCell>
        <mxCell id="gTo4boSulwLFCVvMiwWt-13" value="Клиент" style="text;html=1;strokeColor=none;fillColor=none;align=center;verticalAlign=middle;whiteSpace=wrap;rounded=0;" parent="1" vertex="1">
          <mxGeometry x="460" y="590" width="60" height="30" as="geometry" />
        </mxCell>
        <mxCell id="gTo4boSulwLFCVvMiwWt-16" value="" style="endArrow=classic;html=1;rounded=0;entryX=0.415;entryY=1.055;entryDx=0;entryDy=0;entryPerimeter=0;" parent="1" edge="1" source="gTo4boSulwLFCVvMiwWt-19">
          <mxGeometry width="50" height="50" relative="1" as="geometry">
            <mxPoint x="300" y="560" as="sourcePoint" />
            <mxPoint x="299.8000000000002" y="260" as="targetPoint" />
          </mxGeometry>
        </mxCell>
        <mxCell id="gTo4boSulwLFCVvMiwWt-19" value="Сотрудник" style="text;html=1;strokeColor=none;fillColor=none;align=center;verticalAlign=middle;whiteSpace=wrap;rounded=0;" parent="1" vertex="1">
          <mxGeometry x="271" y="593" width="60" height="30" as="geometry" />
        </mxCell>
        <mxCell id="gTo4boSulwLFCVvMiwWt-20" value="" style="endArrow=classic;html=1;rounded=0;entryX=0.75;entryY=1;entryDx=0;entryDy=0;exitX=0.5;exitY=0;exitDx=0;exitDy=0;" parent="1" target="8RD01GwfZpLmEbGkj-MV-3" edge="1" source="gTo4boSulwLFCVvMiwWt-13">
          <mxGeometry width="50" height="50" relative="1" as="geometry">
            <mxPoint x="300" y="560" as="sourcePoint" />
            <mxPoint x="620" y="480" as="targetPoint" />
            <Array as="points" />
          </mxGeometry>
        </mxCell>
        <mxCell id="iDcGcSW94u35pP6nEgol-5" value="" style="endArrow=classic;html=1;rounded=0;exitX=0.993;exitY=0.105;exitDx=0;exitDy=0;exitPerimeter=0;" parent="1" source="8RD01GwfZpLmEbGkj-MV-2" edge="1">
          <mxGeometry width="50" height="50" relative="1" as="geometry">
            <mxPoint x="690" y="200" as="sourcePoint" />
            <mxPoint x="504" y="277" as="targetPoint" />
            <Array as="points">
              <mxPoint x="504" y="188" />
            </Array>
          </mxGeometry>
        </mxCell>
        <mxCell id="iDcGcSW94u35pP6nEgol-6" value="Стоимость работы" style="text;html=1;strokeColor=none;fillColor=none;align=center;verticalAlign=middle;whiteSpace=wrap;rounded=0;" parent="1" vertex="1">
          <mxGeometry x="418" y="152" width="90" height="30" as="geometry" />
        </mxCell>
        <mxCell id="iDcGcSW94u35pP6nEgol-7" value="Перечень работ" style="edgeLabel;html=1;align=center;verticalAlign=middle;resizable=0;points=[];" parent="1" vertex="1" connectable="0">
          <mxGeometry x="418" y="209" as="geometry" />
        </mxCell>
        <mxCell id="6sgp_j9lnv-MHtX0Il7Z-1" value="" style="endArrow=classic;html=1;rounded=0;entryX=0.415;entryY=1.055;entryDx=0;entryDy=0;entryPerimeter=0;" parent="1" edge="1">
          <mxGeometry width="50" height="50" relative="1" as="geometry">
            <mxPoint x="300" y="555" as="sourcePoint" />
            <mxPoint x="430.00000000000017" y="360" as="targetPoint" />
            <Array as="points">
              <mxPoint x="430" y="555" />
            </Array>
          </mxGeometry>
        </mxCell>
        <mxCell id="cW5cbvTTbWDXC6wcSxft-4" value="Договор" style="text;html=1;align=center;verticalAlign=middle;resizable=0;points=[];autosize=1;strokeColor=none;fillColor=none;" vertex="1" parent="1">
          <mxGeometry x="547" y="294" width="63" height="26" as="geometry" />
        </mxCell>
      </root>
    </mxGraphModel>
  </diagram>
</mxfile>
